#!OML:ASF F:\VICON\USERDATA\INSTALL\SteveWalk\SteveWalk.ASF
:FULLY-SPECIFIED
:DEGREES
287
root -0.164488 15.9471 17.63 19.3717 -7.25712 -1.35831
lowerback -15.0422 2.44531 0.867449
upperback -5.2886 3.06974 0.524858
thorax 2.84065 1.51959 0.585831
lowerneck -4.4538 1.61657 0.251377
upperneck 6.07236 2.30054 -2.29876
head 2.73525 1.07386 -0.694926
rclavicle -1.89839e-014 -8.54774e-015
rhumerus -8.0098 10.931 -84.1206
rradius 51.2011
rwrist -16.2817
rhand -17.1315 -32.9628
rfingers 7.12502
rthumb 9.10841 -62.7461
lclavicle -1.89839e-014 -8.54774e-015
lhumerus -71.2594 22.376 50.5652
lradius 11.3029
lwrist -40.1609
lhand -10.1414 -17.9066
lfingers 7.12502
lthumb 15.8475 11.4648
rfemur -1.9099 -4.76685 20.0934
rtibia 21.9193
rfoot -24.6536 17.0164
rtoes -24.1774
lfemur -50.184 10.5136 -27.1845
ltibia 10.1572
lfoot -10.0914 -3.43236
ltoes -10.0991
288
root -0.16043 15.9036 17.8786 19.2996 -7.1716 -1.22048
lowerback -15.0212 2.38186 0.50264
upperback -5.36248 3.04217 0.454611
thorax 2.73714 1.50816 0.709441
lowerneck -4.30592 1.62143 0.306014
upperneck 5.93956 2.29462 -2.22139
head 2.66233 1.07676 -0.680662
rclavicle -4.00675e-014 1.78906e-015
rhumerus -8.42219 11.1546 -83.9347
rradius 51.9472
rwrist -16.5385
rhand -17.2354 -33.2493
rfingers 7.12502
rthumb 9.00818 -63.037
lclavicle -4.00675e-014 1.78906e-015
lhumerus -72.6236 22.8431 47.9483
lradius 11.0173
lwrist -41.7629
lhand -10.4145 -18.1863
lfingers 7.12502
lthumb 15.5845 11.2058
rfemur -1.13761 -4.17606 19.7547
rtibia 22.2645
rfoot -23.9036 16.5893
rtoes -26.122
lfemur -50.3737 9.56335 -26.6834
ltibia 11.8806
lfoot -10.2709 -2.2463
ltoes -9.71579
289
root -0.149607 15.8941 18.1434 19.3655 -6.97227 -1.33661
lowerback -15.3239 2.38266 0.46671
upperback -5.36093 3.04581 0.434639
thorax 2.89934 1.50935 0.723009
lowerneck -4.4855 1.56663 0.321886
upperneck 5.96485 2.21158 -2.07535
head 2.70094 1.03926 -0.638455
rclavicle -1.98847e-014 -1.68967e-014
rhumerus -8.8634 11.2467 -83.6763
rradius 52.7721
rwrist -16.7784
rhand -17.1817 -33.5787
rfingers 7.12502
rthumb 9.06004 -63.3641
lclavicle -1.98847e-014 -1.68967e-014
lhumerus -73.755 23.5152 45.2965
lradius 10.9411
lwrist -43.0574
lhand -8.80817 -16.9379
lfingers 7.12502
lthumb 17.1311 12.3269
rfemur -0.714642 -3.92396 19.6298
rtibia 22.7595
rfoot -21.4369 18.5031
rtoes -21.38
lfemur -50.4302 8.15854 -25.3991
ltibia 14.1286
lfoot -10.8097 -1.26506
ltoes -2.22333
290
root -0.1301 15.8715 18.4282 19.5092 -6.02118 -1.62311
lowerback -16.0314 2.2221 0.834121
upperback -5.25509 2.76609 0.506458
thorax 3.40277 1.36764 0.574514
lowerneck -4.74461 1.4105 0.222535
upperneck 5.98689 2.00099 -1.9257
head 2.75034 0.935547 -0.579673
rclavicle -3.3197e-014 -1.35174e-014
rhumerus -9.37219 11.2372 -83.3775
rradius 53.6462
rwrist -16.91
rhand -17.2505 -33.4431
rfingers 7.12502
rthumb 8.99364 -63.2313
lclavicle -3.3197e-014 -1.35174e-014
lhumerus -74.6299 24.1061 43.2165
lradius 11.0618
lwrist -43.9812
lhand -7.29654 -15.6723
lfingers 7.12502
lthumb 18.5856 13.4599
rfemur -0.286177 -4.39178 19.8966
rtibia 23.3336
rfoot -18.0397 21.021
rtoes -12.2104
lfemur -50.7849 6.8779 -24.6063
ltibia 16.705
lfoot -11.2117 -0.861206
ltoes -3.82557
